# Blender 5.1.1
# www.blender.org
mtllib playerTurn.mtl
o テキスト
v 3.151539 0.013527 0.000000
v 3.163769 0.022652 0.000000
v 3.176430 0.031317 0.000000
v 3.189512 0.039449 0.000000
v 3.203007 0.046970 0.000000
v 3.216906 0.053798 0.000000
v 3.231201 0.059849 0.000000
v 3.245883 0.065029 0.000000
v 3.260934 0.069242 0.000000
v 3.276332 0.072384 0.000000
v 3.292044 0.074349 0.000000
v 3.307924 0.075024 0.000000
v 3.320453 0.074555 0.000000
v 3.332767 0.073236 0.000000
v 3.344896 0.071176 0.000000
v 3.356838 0.068482 0.000000
v 3.368599 0.065248 0.000000
v 3.380187 0.061565 0.000000
v 3.391609 0.057514 0.000000
v 3.402871 0.053172 0.000000
v 3.413977 0.048614 0.000000
v 3.424927 0.043910 0.000000
v 3.435718 0.039130 0.000000
v 3.446344 0.034343 0.000000
v 3.456795 0.029616 0.000000
v 3.467059 0.025015 0.000000
v 3.477120 0.020606 0.000000
v 3.486957 0.016454 0.000000
v 3.496546 0.012622 0.000000
v 3.505858 0.009169 0.000000
v 3.514861 0.006153 0.000000
v 3.523519 0.003622 0.000000
v 3.531791 0.001621 0.000000
v 3.539641 0.000178 0.000000
v 3.547034 -0.000687 -0.000000
v 3.553748 -0.000964 -0.000000
v 3.561872 -0.000492 -0.000000
v 3.570491 0.000921 0.000000
v 3.579819 0.003319 0.000000
v 3.589721 0.006683 0.000000
v 3.600060 0.010965 0.000000
v 3.610707 0.016090 0.000000
v 3.621544 0.021972 0.000000
v 3.632465 0.028516 0.000000
v 3.643368 0.035622 0.000000
v 3.654161 0.043188 0.000000
v 3.664756 0.051107 0.000000
v 3.724001 0.098032 0.000000
v 3.724001 -0.061188 -0.000000
v 3.702082 -0.079178 -0.000000
v 3.690164 -0.088194 -0.000000
v 3.677751 -0.096798 -0.000000
v 3.664871 -0.104910 -0.000000
v 3.651551 -0.112447 -0.000000
v 3.637812 -0.119323 -0.000000
v 3.623677 -0.125447 -0.000000
v 3.609169 -0.130719 -0.000000
v 3.594311 -0.135034 -0.000000
v 3.579130 -0.138276 -0.000000
v 3.563665 -0.140320 -0.000000
v 3.548096 -0.141027 -0.000000
v 3.535912 -0.140551 -0.000000
v 3.523896 -0.139221 -0.000000
v 3.512006 -0.137156 -0.000000
v 3.500239 -0.134463 -0.000000
v 3.488593 -0.131237 -0.000000
v 3.477064 -0.127564 -0.000000
v 3.465653 -0.123524 -0.000000
v 3.454364 -0.119191 -0.000000
v 3.443206 -0.114637 -0.000000
v 3.432190 -0.109932 -0.000000
v 3.421334 -0.105144 -0.000000
v 3.410787 -0.100401 -0.000000
v 3.400195 -0.095722 -0.000000
v 3.389679 -0.091117 -0.000000
v 3.379369 -0.086701 -0.000000
v 3.369289 -0.082539 -0.000000
v 3.359465 -0.078693 -0.000000
v 3.349931 -0.075226 -0.000000
v 3.340722 -0.072194 -0.000000
v 3.331880 -0.069649 -0.000000
v 3.323449 -0.067634 -0.000000
v 3.315475 -0.066183 -0.000000
v 3.307999 -0.065313 -0.000000
v 3.301137 -0.065031 -0.000000
v 3.291788 -0.065501 -0.000000
v 3.282527 -0.066873 -0.000000
v 3.273103 -0.069145 -0.000000
v 3.263457 -0.072315 -0.000000
v 3.253561 -0.076369 -0.000000
v 3.243407 -0.081284 -0.000000
v 3.232999 -0.087017 -0.000000
v 3.222342 -0.093516 -0.000000
v 3.211443 -0.100715 -0.000000
v 3.200305 -0.108544 -0.000000
v 3.188924 -0.116924 -0.000000
v 3.129001 -0.162543 -0.000000
v 3.129001 -0.004658 -0.000000
v 2.961321 -0.330000 -0.000000
v 2.549001 0.144712 0.000000
v 2.549001 -0.330000 -0.000000
v 2.397001 -0.330000 -0.000000
v 2.397001 0.412000 0.000000
v 2.518614 0.412000 0.000000
v 2.937001 -0.066157 -0.000000
v 2.937001 0.412000 0.000000
v 3.089001 0.412000 0.000000
v 3.089001 -0.330000 -0.000000
v 2.034203 0.410399 0.000000
v 2.068345 0.405517 0.000000
v 2.100318 0.397391 0.000000
v 2.129951 0.386024 0.000000
v 2.157027 0.371423 0.000000
v 2.181274 0.353635 0.000000
v 2.202382 0.332768 0.000000
v 2.220039 0.309019 0.000000
v 2.233977 0.282664 0.000000
v 2.244011 0.254020 0.000000
v 2.250048 0.223393 0.000000
v 2.252041 0.191272 0.000000
v 2.251062 0.168975 0.000000
v 2.248151 0.147699 0.000000
v 2.243288 0.127235 0.000000
v 2.236480 0.107682 0.000000
v 2.227752 0.089152 0.000000
v 2.217153 0.071759 0.000000
v 2.204753 0.055613 0.000000
v 2.190644 0.040806 0.000000
v 2.174927 0.027412 0.000000
v 2.157702 0.015480 0.000000
v 2.139067 0.005039 0.000000
v 2.168069 0.018022 0.000000
v 2.141271 0.037125 0.000000
v 2.156960 0.024240 0.000000
v 2.171719 0.010445 0.000000
v 2.185667 -0.004206 -0.000000
v 2.198941 -0.019667 -0.000000
v 2.211688 -0.035908 -0.000000
v 2.224058 -0.052910 -0.000000
v 2.236205 -0.070665 -0.000000
v 2.248282 -0.089174 -0.000000
v 2.260439 -0.108446 -0.000000
v 2.272824 -0.128492 -0.000000
v 2.285529 -0.149242 -0.000000
v 2.292428 -0.160329 -0.000000
v 2.298953 -0.170617 -0.000000
v 2.305253 -0.180344 -0.000000
v 2.311486 -0.189755 -0.000000
v 2.317808 -0.199098 -0.000000
v 2.324376 -0.208615 -0.000000
v 2.331344 -0.218546 -0.000000
v 2.338861 -0.229125 -0.000000
v 2.347075 -0.240579 -0.000000
v 2.356128 -0.253132 -0.000000
v 2.366160 -0.267006 -0.000000
v 2.411728 -0.330000 -0.000000
v 2.219622 -0.330000 -0.000000
v 2.120876 -0.176395 -0.000000
v 2.099748 -0.144496 -0.000000
v 2.080721 -0.117717 -0.000000
v 2.063554 -0.095565 -0.000000
v 2.048130 -0.077694 -0.000000
v 2.034356 -0.063738 -0.000000
v 2.022148 -0.053281 -0.000000
v 2.011385 -0.045819 -0.000000
v 2.001824 -0.040754 -0.000000
v 1.993015 -0.037461 -0.000000
v 1.984327 -0.035429 -0.000000
v 1.975103 -0.034339 -0.000000
v 1.964520 -0.034000 -0.000000
v 1.954000 -0.034000 -0.000000
v 1.954000 -0.330000 -0.000000
v 1.796001 -0.330000 -0.000000
v 1.796001 0.412000 0.000000
v 1.998676 0.412000 0.000000
v 1.986336 0.114000 0.000000
v 2.008879 0.114999 0.000000
v 2.027392 0.117697 0.000000
v 2.042677 0.121788 0.000000
v 2.055005 0.126933 0.000000
v 2.064761 0.132843 0.000000
v 2.072414 0.139359 0.000000
v 2.078425 0.146489 0.000000
v 2.083136 0.154357 0.000000
v 2.086719 0.163100 0.000000
v 2.089221 0.172768 0.000000
v 2.090639 0.183296 0.000000
v 2.090971 0.194445 0.000000
v 2.090149 0.206748 0.000000
v 2.088182 0.217451 0.000000
v 2.085187 0.226623 0.000000
v 2.081242 0.234452 0.000000
v 2.076286 0.241244 0.000000
v 2.070065 0.247307 0.000000
v 2.062178 0.252816 0.000000
v 2.052211 0.257752 0.000000
v 2.039849 0.261949 0.000000
v 2.024904 0.265189 0.000000
v 2.007287 0.267258 0.000000
v 1.986466 0.268000 0.000000
v 1.954000 0.268000 0.000000
v 1.954000 0.114000 0.000000
v 2.164768 0.020375 0.000000
v 2.162658 0.018913 0.000000
v 2.165055 0.016673 0.000000
v 1.716790 -0.075753 -0.000000
v 1.709948 -0.117237 -0.000000
v 1.698378 -0.156244 -0.000000
v 1.681961 -0.192449 -0.000000
v 1.660642 -0.225455 -0.000000
v 1.634469 -0.254828 -0.000000
v 1.603604 -0.280169 -0.000000
v 1.568279 -0.301172 -0.000000
v 1.528723 -0.317645 -0.000000
v 1.485111 -0.329487 -0.000000
v 1.437540 -0.336635 -0.000000
v 1.385986 -0.339033 -0.000000
v 1.347269 -0.337195 -0.000000
v 1.309062 -0.331594 -0.000000
v 1.271818 -0.322087 -0.000000
v 1.236017 -0.308511 -0.000000
v 1.202179 -0.290692 -0.000000
v 1.170882 -0.268468 -0.000000
v 1.142762 -0.241725 -0.000000
v 1.118495 -0.210431 -0.000000
v 1.098743 -0.174659 -0.000000
v 1.084095 -0.134563 -0.000000
v 1.075032 -0.090313 -0.000000
v 1.072001 -0.042959 -0.000000
v 1.072001 0.412000 0.000000
v 1.230001 0.412000 0.000000
v 1.230001 -0.020824 -0.000000
v 1.230208 -0.038558 -0.000000
v 1.230838 -0.054193 -0.000000
v 1.231905 -0.067993 -0.000000
v 1.233406 -0.080075 -0.000000
v 1.235329 -0.090580 -0.000000
v 1.237650 -0.099681 -0.000000
v 1.240357 -0.107606 -0.000000
v 1.243470 -0.114638 -0.000000
v 1.247067 -0.121095 -0.000000
v 1.251285 -0.127284 -0.000000
v 1.256297 -0.133462 -0.000000
v 1.262216 -0.139768 -0.000000
v 1.270748 -0.147764 -0.000000
v 1.279560 -0.154987 -0.000000
v 1.288667 -0.161466 -0.000000
v 1.298090 -0.167229 -0.000000
v 1.307852 -0.172297 -0.000000
v 1.317981 -0.176688 -0.000000
v 1.328508 -0.180411 -0.000000
v 1.339462 -0.183472 -0.000000
v 1.350870 -0.185869 -0.000000
v 1.362753 -0.187594 -0.000000
v 1.375130 -0.188638 -0.000000
v 1.388008 -0.188989 -0.000000
v 1.404682 -0.188543 -0.000000
v 1.420434 -0.187249 -0.000000
v 1.435252 -0.185177 -0.000000
v 1.449136 -0.182394 -0.000000
v 1.462086 -0.178968 -0.000000
v 1.474103 -0.174968 -0.000000
v 1.485188 -0.170461 -0.000000
v 1.495345 -0.165517 -0.000000
v 1.504575 -0.160206 -0.000000
v 1.512884 -0.154597 -0.000000
v 1.520278 -0.148762 -0.000000
v 1.526661 -0.142871 -0.000000
v 1.532945 -0.135926 -0.000000
v 1.538325 -0.128628 -0.000000
v 1.543015 -0.120767 -0.000000
v 1.547092 -0.112241 -0.000000
v 1.550599 -0.102966 -0.000000
v 1.553559 -0.092883 -0.000000
v 1.555988 -0.081965 -0.000000
v 1.557902 -0.070202 -0.000000
v 1.559324 -0.057602 -0.000000
v 1.560287 -0.044183 -0.000000
v 1.560829 -0.029966 -0.000000
v 1.561001 -0.014830 -0.000000
v 1.561001 0.412000 0.000000
v 1.719001 0.412000 0.000000
v 1.719001 -0.032771 -0.000000
v 0.818001 0.264000 0.000000
v 0.818001 -0.330000 -0.000000
v 0.660001 -0.330000 -0.000000
v 0.660001 0.264000 0.000000
v 0.424001 0.264000 0.000000
v 0.424001 0.412000 0.000000
v 1.054000 0.412000 0.000000
v 1.054000 0.264000 0.000000
v -0.159797 0.410399 0.000000
v -0.125656 0.405517 0.000000
v -0.093682 0.397391 0.000000
v -0.064049 0.386024 0.000000
v -0.036973 0.371423 0.000000
v -0.012726 0.353635 0.000000
v 0.008382 0.332768 0.000000
v 0.026039 0.309019 0.000000
v 0.039977 0.282664 0.000000
v 0.050011 0.254020 0.000000
v 0.056047 0.223393 0.000000
v 0.058041 0.191272 0.000000
v 0.057062 0.168975 0.000000
v 0.054150 0.147698 0.000000
v 0.049288 0.127234 0.000000
v 0.042480 0.107682 0.000000
v 0.033752 0.089152 0.000000
v 0.023153 0.071759 0.000000
v 0.010753 0.055613 0.000000
v -0.003356 0.040806 0.000000
v -0.019074 0.027412 0.000000
v -0.036298 0.015480 0.000000
v -0.054933 0.005039 0.000000
v -0.025931 0.018022 0.000000
v -0.052729 0.037125 0.000000
v -0.037040 0.024240 0.000000
v -0.022281 0.010445 0.000000
v -0.008333 -0.004206 -0.000000
v 0.004941 -0.019667 -0.000000
v 0.017688 -0.035908 -0.000000
v 0.030058 -0.052910 -0.000000
v 0.042205 -0.070665 -0.000000
v 0.054282 -0.089174 -0.000000
v 0.066439 -0.108446 -0.000000
v 0.078824 -0.128492 -0.000000
v 0.091529 -0.149242 -0.000000
v 0.098428 -0.160329 -0.000000
v 0.104952 -0.170617 -0.000000
v 0.111253 -0.180344 -0.000000
v 0.117486 -0.189755 -0.000000
v 0.123808 -0.199098 -0.000000
v 0.130376 -0.208615 -0.000000
v 0.137344 -0.218546 -0.000000
v 0.144862 -0.229125 -0.000000
v 0.153075 -0.240579 -0.000000
v 0.162128 -0.253132 -0.000000
v 0.172160 -0.267006 -0.000000
v 0.217727 -0.330000 -0.000000
v 0.025622 -0.330000 -0.000000
v -0.073124 -0.176395 -0.000000
v -0.094252 -0.144497 -0.000000
v -0.113279 -0.117717 -0.000000
v -0.130446 -0.095564 -0.000000
v -0.145870 -0.077694 -0.000000
v -0.159644 -0.063738 -0.000000
v -0.171852 -0.053281 -0.000000
v -0.182615 -0.045819 -0.000000
v -0.192176 -0.040754 -0.000000
v -0.200985 -0.037461 -0.000000
v -0.209673 -0.035429 -0.000000
v -0.218897 -0.034339 -0.000000
v -0.229480 -0.034000 -0.000000
v -0.240000 -0.034000 -0.000000
v -0.240000 -0.330000 -0.000000
v -0.397999 -0.330000 -0.000000
v -0.397999 0.412000 0.000000
v -0.195324 0.412000 0.000000
v -0.207664 0.114000 0.000000
v -0.185121 0.114999 0.000000
v -0.166608 0.117697 0.000000
v -0.151323 0.121788 0.000000
v -0.138995 0.126933 0.000000
v -0.129239 0.132843 0.000000
v -0.121586 0.139359 0.000000
v -0.115575 0.146489 0.000000
v -0.110864 0.154357 0.000000
v -0.107281 0.163100 0.000000
v -0.104779 0.172768 0.000000
v -0.103361 0.183297 0.000000
v -0.103029 0.194446 0.000000
v -0.103850 0.206748 0.000000
v -0.105818 0.217451 0.000000
v -0.108812 0.226622 0.000000
v -0.112758 0.234452 0.000000
v -0.117714 0.241244 0.000000
v -0.123935 0.247307 0.000000
v -0.131822 0.252816 0.000000
v -0.141789 0.257752 0.000000
v -0.154151 0.261949 0.000000
v -0.169096 0.265189 0.000000
v -0.186713 0.267258 0.000000
v -0.207534 0.268000 0.000000
v -0.240000 0.268000 0.000000
v -0.240000 0.114000 0.000000
v -0.029232 0.020375 0.000000
v -0.031342 0.018913 0.000000
v -0.028945 0.016673 0.000000
v -0.742000 0.264000 0.000000
v -0.742000 0.118000 0.000000
v -0.463000 0.118000 0.000000
v -0.463000 -0.030000 -0.000000
v -0.742000 -0.030000 -0.000000
v -0.742000 -0.182000 -0.000000
v -0.444000 -0.182000 -0.000000
v -0.444000 -0.330000 -0.000000
v -0.899999 -0.330000 -0.000000
v -0.899999 0.412000 0.000000
v -0.453000 0.412000 0.000000
v -0.453000 0.264000 0.000000
v -0.883276 0.412000 0.000000
v -1.168000 0.049624 0.000000
v -1.168000 -0.330000 -0.000000
v -1.325999 -0.330000 -0.000000
v -1.325999 0.050599 0.000000
v -1.610842 0.412000 0.000000
v -1.416338 0.412000 0.000000
v -1.247871 0.195663 0.000000
v -1.077563 0.412000 0.000000
v -1.668349 -0.330000 -0.000000
v -1.759349 -0.129000 -0.000000
v -2.010205 -0.129000 -0.000000
v -2.096205 -0.330000 -0.000000
v -2.261435 -0.330000 -0.000000
v -1.942808 0.416000 0.000000
v -1.834506 0.416000 0.000000
v -1.502830 -0.330000 -0.000000
v -1.826200 0.019000 0.000000
v -1.888959 0.159922 0.000000
v -1.947154 0.019000 0.000000
v -2.196000 -0.182000 -0.000000
v -2.196000 -0.330000 -0.000000
v -2.661999 -0.330000 -0.000000
v -2.661999 0.412000 0.000000
v -2.504000 0.412000 0.000000
v -2.504000 -0.182000 -0.000000
v -2.894265 0.410085 0.000000
v -2.858577 0.404301 0.000000
v -2.825931 0.394809 0.000000
v -2.796418 0.381752 0.000000
v -2.770184 0.365328 0.000000
v -2.747397 0.345819 0.000000
v -2.728202 0.323594 0.000000
v -2.712668 0.299075 0.000000
v -2.700781 0.272693 0.000000
v -2.692454 0.244839 0.000000
v -2.687558 0.215856 0.000000
v -2.685953 0.185943 0.000000
v -2.687663 0.156208 0.000000
v -2.692905 0.127371 0.000000
v -2.701829 0.099758 0.000000
v -2.714551 0.073735 0.000000
v -2.731120 0.049719 0.000000
v -2.751490 0.028133 0.000000
v -2.775531 0.009351 0.000000
v -2.803074 -0.006338 -0.000000
v -2.833963 -0.018739 -0.000000
v -2.868093 -0.027722 -0.000000
v -2.905423 -0.033186 -0.000000
v -2.945318 -0.035000 -0.000000
v -3.018000 -0.035000 -0.000000
v -3.018000 -0.330000 -0.000000
v -3.176000 -0.330000 -0.000000
v -3.176000 0.412000 0.000000
v -2.932244 0.412000 0.000000
v -2.937683 0.113000 0.000000
v -2.922144 0.113708 0.000000
v -2.908682 0.115659 0.000000
v -2.896694 0.118754 0.000000
v -2.886195 0.122856 0.000000
v -2.877144 0.127842 0.000000
v -2.869444 0.133632 0.000000
v -2.862962 0.140223 0.000000
v -2.857572 0.147708 0.000000
v -2.853214 0.156254 0.000000
v -2.849916 0.166057 0.000000
v -2.847802 0.177284 0.000000
v -2.847041 0.190189 0.000000
v -2.847481 0.199678 0.000000
v -2.848858 0.209097 0.000000
v -2.851178 0.218009 0.000000
v -2.854442 0.226255 0.000000
v -2.858661 0.233758 0.000000
v -2.863906 0.240526 0.000000
v -2.870361 0.246613 0.000000
v -2.878341 0.252047 0.000000
v -2.888242 0.256753 0.000000
v -2.900461 0.260520 0.000000
v -2.915319 0.263040 0.000000
v -2.933779 0.264000 0.000000
v -3.018000 0.264000 0.000000
v -3.018000 0.113000 0.000000
v -3.782461 0.013527 0.000000
v -3.770231 0.022652 0.000000
v -3.757570 0.031317 0.000000
v -3.744488 0.039449 0.000000
v -3.730994 0.046970 0.000000
v -3.717095 0.053798 0.000000
v -3.702799 0.059849 0.000000
v -3.688118 0.065029 0.000000
v -3.673067 0.069242 0.000000
v -3.657668 0.072384 0.000000
v -3.641956 0.074349 0.000000
v -3.626076 0.075024 0.000000
v -3.613548 0.074555 0.000000
v -3.601233 0.073236 0.000000
v -3.589104 0.071176 0.000000
v -3.577162 0.068482 0.000000
v -3.565401 0.065248 0.000000
v -3.553814 0.061565 0.000000
v -3.542392 0.057514 0.000000
v -3.531129 0.053172 0.000000
v -3.520024 0.048614 0.000000
v -3.509073 0.043910 0.000000
v -3.498283 0.039130 0.000000
v -3.487657 0.034343 0.000000
v -3.477205 0.029616 0.000000
v -3.466941 0.025015 0.000000
v -3.456880 0.020606 0.000000
v -3.447044 0.016454 0.000000
v -3.437454 0.012622 0.000000
v -3.428142 0.009169 0.000000
v -3.419139 0.006153 0.000000
v -3.410482 0.003622 0.000000
v -3.402209 0.001621 0.000000
v -3.394360 0.000178 0.000000
v -3.386966 -0.000687 -0.000000
v -3.380253 -0.000964 -0.000000
v -3.372129 -0.000492 -0.000000
v -3.363510 0.000921 0.000000
v -3.354182 0.003319 0.000000
v -3.344280 0.006683 0.000000
v -3.333941 0.010965 0.000000
v -3.323294 0.016090 0.000000
v -3.312456 0.021972 0.000000
v -3.301536 0.028516 0.000000
v -3.290632 0.035622 0.000000
v -3.279839 0.043188 0.000000
v -3.269244 0.051107 0.000000
v -3.210000 0.098032 0.000000
v -3.210000 -0.061188 -0.000000
v -3.231919 -0.079178 -0.000000
v -3.243837 -0.088194 -0.000000
v -3.256249 -0.096798 -0.000000
v -3.269129 -0.104910 -0.000000
v -3.282450 -0.112447 -0.000000
v -3.296189 -0.119323 -0.000000
v -3.310323 -0.125447 -0.000000
v -3.324831 -0.130719 -0.000000
v -3.339690 -0.135034 -0.000000
v -3.354871 -0.138276 -0.000000
v -3.370336 -0.140320 -0.000000
v -3.385905 -0.141027 -0.000000
v -3.398088 -0.140551 -0.000000
v -3.410105 -0.139221 -0.000000
v -3.421995 -0.137156 -0.000000
v -3.433761 -0.134463 -0.000000
v -3.445408 -0.131237 -0.000000
v -3.456937 -0.127564 -0.000000
v -3.468348 -0.123524 -0.000000
v -3.479636 -0.119191 -0.000000
v -3.490795 -0.114637 -0.000000
v -3.501810 -0.109932 -0.000000
v -3.512667 -0.105144 -0.000000
v -3.523214 -0.100401 -0.000000
v -3.533805 -0.095722 -0.000000
v -3.544321 -0.091117 -0.000000
v -3.554631 -0.086701 -0.000000
v -3.564712 -0.082539 -0.000000
v -3.574535 -0.078693 -0.000000
v -3.584070 -0.075226 -0.000000
v -3.593279 -0.072194 -0.000000
v -3.602121 -0.069649 -0.000000
v -3.610551 -0.067634 -0.000000
v -3.618525 -0.066183 -0.000000
v -3.626001 -0.065313 -0.000000
v -3.632863 -0.065031 -0.000000
v -3.642213 -0.065501 -0.000000
v -3.651473 -0.066873 -0.000000
v -3.660897 -0.069145 -0.000000
v -3.670543 -0.072315 -0.000000
v -3.680439 -0.076369 -0.000000
v -3.690593 -0.081284 -0.000000
v -3.701001 -0.087017 -0.000000
v -3.711658 -0.093516 -0.000000
v -3.722557 -0.100715 -0.000000
v -3.733696 -0.108544 -0.000000
v -3.745077 -0.116924 -0.000000
v -3.805000 -0.162543 -0.000000
v -3.805000 -0.004658 -0.000000
vn -0.0000 -0.0000 1.0000
vt 1.000000 0.000000
vt 0.989691 0.000000
vt 0.979381 0.000000
vt 0.969072 0.000000
vt 0.958763 0.000000
vt 0.000000 0.000000
vt 0.948454 0.000000
vt 0.876289 0.000000
vt 0.103093 0.000000
vt 0.092784 0.000000
vt 0.072165 0.000000
vt 0.061856 0.000000
vt 0.896907 0.000000
vt 0.886598 0.000000
vt 0.082474 0.000000
vt 0.938144 0.000000
vt 0.010309 0.000000
vt 0.927835 0.000000
vt 0.020619 0.000000
vt 0.030928 0.000000
vt 0.917526 0.000000
vt 0.041237 0.000000
vt 0.907216 0.000000
vt 0.051546 0.000000
vt 0.113402 0.000000
vt 0.865979 0.000000
vt 0.855670 0.000000
vt 0.123711 0.000000
vt 0.824742 0.000000
vt 0.154639 0.000000
vt 0.835052 0.000000
vt 0.144330 0.000000
vt 0.845361 0.000000
vt 0.134021 0.000000
vt 0.783505 0.000000
vt 0.773196 0.000000
vt 0.216495 0.000000
vt 0.206186 0.000000
vt 0.793814 0.000000
vt 0.195876 0.000000
vt 0.804124 0.000000
vt 0.185567 0.000000
vt 0.814433 0.000000
vt 0.175258 0.000000
vt 0.164948 0.000000
vt 0.721649 0.000000
vt 0.711340 0.000000
vt 0.278351 0.000000
vt 0.268041 0.000000
vt 0.618557 0.000000
vt 0.350515 0.000000
vt 0.628866 0.000000
vt 0.639175 0.000000
vt 0.340206 0.000000
vt 0.649485 0.000000
vt 0.329897 0.000000
vt 0.659794 0.000000
vt 0.670103 0.000000
vt 0.319588 0.000000
vt 0.680412 0.000000
vt 0.309278 0.000000
vt 0.690722 0.000000
vt 0.298969 0.000000
vt 0.701031 0.000000
vt 0.288660 0.000000
vt 0.371134 0.000000
vt 0.360825 0.000000
vt 0.608247 0.000000
vt 0.597938 0.000000
vt 0.587629 0.000000
vt 0.381443 0.000000
vt 0.577320 0.000000
vt 0.391753 0.000000
vt 0.494845 0.000000
vt 0.484536 0.000000
vt 0.474227 0.000000
vt 0.453608 0.000000
vt 0.443299 0.000000
vt 0.505155 0.000000
vt 0.463918 0.000000
vt 0.567010 0.000000
vt 0.556701 0.000000
vt 0.402062 0.000000
vt 0.546392 0.000000
vt 0.412371 0.000000
vt 0.536082 0.000000
vt 0.422680 0.000000
vt 0.525773 0.000000
vt 0.515464 0.000000
vt 0.432990 0.000000
vt 0.731959 0.000000
vt 0.257732 0.000000
vt 0.742268 0.000000
vt 0.247423 0.000000
vt 0.752577 0.000000
vt 0.237113 0.000000
vt 0.762887 0.000000
vt 0.226804 0.000000
vt 0.222222 0.000000
vt 0.111111 0.000000
vt 0.333333 0.000000
vt 0.444444 0.000000
vt 0.555556 0.000000
vt 0.666667 0.000000
vt 0.888889 0.000000
vt 0.777778 0.000000
vt 0.656250 0.000000
vt 0.645833 0.000000
vt 0.968750 0.000000
vt 0.677083 0.000000
vt 0.614583 0.000000
vt 0.697917 0.000000
vt 0.625000 0.000000
vt 0.635417 0.000000
vt 0.958333 0.000000
vt 0.604167 0.000000
vt 0.593750 0.000000
vt 0.708333 0.000000
vt 0.583333 0.000000
vt 0.718750 0.000000
vt 0.927083 0.000000
vt 0.937500 0.000000
vt 0.687500 0.000000
vt 0.947917 0.000000
vt 0.906250 0.000000
vt 0.020833 0.000000
vt 0.916667 0.000000
vt 0.010417 0.000000
vt 0.250000 0.000000
vt 0.229167 0.000000
vt 0.260417 0.000000
vt 0.270833 0.000000
vt 0.218750 0.000000
vt 0.208333 0.000000
vt 0.979167 0.000000
vt 0.291667 0.000000
vt 0.281250 0.000000
vt 0.197917 0.000000
vt 0.187500 0.000000
vt 0.177083 0.000000
vt 0.489583 0.000000
vt 0.479167 0.000000
vt 0.500000 0.000000
vt 0.468750 0.000000
vt 0.458333 0.000000
vt 0.447917 0.000000
vt 0.437500 0.000000
vt 0.427083 0.000000
vt 0.416667 0.000000
vt 0.406250 0.000000
vt 0.395833 0.000000
vt 0.385417 0.000000
vt 0.510417 0.000000
vt 0.375000 0.000000
vt 0.364583 0.000000
vt 0.354167 0.000000
vt 0.343750 0.000000
vt 0.322917 0.000000
vt 0.520833 0.000000
vt 0.312500 0.000000
vt 0.302083 0.000000
vt 0.531250 0.000000
vt 0.541667 0.000000
vt 0.552083 0.000000
vt 0.562500 0.000000
vt 0.572917 0.000000
vt 0.729167 0.000000
vt 0.739583 0.000000
vt 0.750000 0.000000
vt 0.760417 0.000000
vt 0.770833 0.000000
vt 0.781250 0.000000
vt 0.166667 0.000000
vt 0.791667 0.000000
vt 0.156250 0.000000
vt 0.145833 0.000000
vt 0.802083 0.000000
vt 0.135417 0.000000
vt 0.812500 0.000000
vt 0.125000 0.000000
vt 0.114583 0.000000
vt 0.822917 0.000000
vt 0.104167 0.000000
vt 0.833333 0.000000
vt 0.093750 0.000000
vt 0.843750 0.000000
vt 0.083333 0.000000
vt 0.854167 0.000000
vt 0.072917 0.000000
vt 0.864583 0.000000
vt 0.062500 0.000000
vt 0.875000 0.000000
vt 0.052083 0.000000
vt 0.885417 0.000000
vt 0.041667 0.000000
vt 0.895833 0.000000
vt 0.031250 0.000000
vt 0.989583 0.000000
vt 0.239583 0.000000
vt 0.428571 0.000000
vt 0.415584 0.000000
vt 0.259740 0.000000
vt 0.272727 0.000000
vt 0.402597 0.000000
vt 0.389610 0.000000
vt 0.285714 0.000000
vt 0.376623 0.000000
vt 0.363636 0.000000
vt 0.298701 0.000000
vt 0.350649 0.000000
vt 0.337662 0.000000
vt 0.311688 0.000000
vt 0.324675 0.000000
vt 0.597403 0.000000
vt 0.584416 0.000000
vt 0.168831 0.000000
vt 0.142857 0.000000
vt 0.636364 0.000000
vt 0.155844 0.000000
vt 0.623377 0.000000
vt 0.610390 0.000000
vt 0.181818 0.000000
vt 0.571429 0.000000
vt 0.558442 0.000000
vt 0.194805 0.000000
vt 0.545455 0.000000
vt 0.207792 0.000000
vt 0.532468 0.000000
vt 0.519481 0.000000
vt 0.220779 0.000000
vt 0.506494 0.000000
vt 0.493506 0.000000
vt 0.233766 0.000000
vt 0.480519 0.000000
vt 0.467532 0.000000
vt 0.246753 0.000000
vt 0.454545 0.000000
vt 0.441558 0.000000
vt 0.116883 0.000000
vt 0.714286 0.000000
vt 0.701299 0.000000
vt 0.675325 0.000000
vt 0.662338 0.000000
vt 0.129870 0.000000
vt 0.688312 0.000000
vt 0.103896 0.000000
vt 0.727273 0.000000
vt 0.740260 0.000000
vt 0.038961 0.000000
vt 0.025974 0.000000
vt 0.857143 0.000000
vt 0.870130 0.000000
vt 0.883117 0.000000
vt 0.012987 0.000000
vt 0.896104 0.000000
vt 0.909091 0.000000
vt 0.922078 0.000000
vt 0.935065 0.000000
vt 0.948052 0.000000
vt 0.961039 0.000000
vt 0.987013 0.000000
vt 0.974026 0.000000
vt 0.090909 0.000000
vt 0.753247 0.000000
vt 0.766234 0.000000
vt 0.077922 0.000000
vt 0.779221 0.000000
vt 0.792208 0.000000
vt 0.064935 0.000000
vt 0.805195 0.000000
vt 0.818182 0.000000
vt 0.051948 0.000000
vt 0.831169 0.000000
vt 0.844156 0.000000
vt 0.649351 0.000000
vt 0.400000 0.000000
vt 0.300000 0.000000
vt 0.200000 0.000000
vt 0.600000 0.000000
vt 0.900000 0.000000
vt 0.800000 0.000000
vt 0.100000 0.000000
vt 0.700000 0.000000
vt 0.436364 0.000000
vt 0.418182 0.000000
vt 0.472727 0.000000
vt 0.490909 0.000000
vt 0.981818 0.000000
vt 0.563636 0.000000
vt 0.527273 0.000000
vt 0.509091 0.000000
vt 0.963636 0.000000
vt 0.945455 0.000000
vt 0.927273 0.000000
vt 0.018182 0.000000
vt 0.381818 0.000000
vt 0.581818 0.000000
vt 0.290909 0.000000
vt 0.672727 0.000000
vt 0.690909 0.000000
vt 0.254545 0.000000
vt 0.709091 0.000000
vt 0.236364 0.000000
vt 0.218182 0.000000
vt 0.745455 0.000000
vt 0.763636 0.000000
vt 0.781818 0.000000
vt 0.163636 0.000000
vt 0.145455 0.000000
vt 0.127273 0.000000
vt 0.345455 0.000000
vt 0.618182 0.000000
vt 0.327273 0.000000
vt 0.309091 0.000000
vt 0.654545 0.000000
vt 0.836364 0.000000
vt 0.109091 0.000000
vt 0.854545 0.000000
vt 0.072727 0.000000
vt 0.872727 0.000000
vt 0.054545 0.000000
vt 0.890909 0.000000
vt 0.036364 0.000000
s 1
f 98/1/1 97/2/1 96/3/1
f 98/1/1 96/3/1 95/4/1
f 95/4/1 94/5/1 98/1/1
f 1/6/1 98/1/1 94/5/1
f 94/5/1 93/7/1 1/6/1
f 86/8/1 11/9/1 10/10/1
f 8/11/1 7/12/1 88/13/1
f 88/13/1 87/14/1 8/11/1
f 9/15/1 8/11/1 87/14/1
f 87/14/1 86/8/1 9/15/1
f 86/8/1 10/10/1 9/15/1
f 1/6/1 93/7/1 92/16/1
f 2/17/1 1/6/1 92/16/1
f 92/16/1 91/18/1 2/17/1
f 3/19/1 2/17/1 91/18/1
f 4/20/1 3/19/1 91/18/1
f 91/18/1 90/21/1 4/20/1
f 5/22/1 4/20/1 90/21/1
f 90/21/1 89/23/1 5/22/1
f 6/24/1 5/22/1 89/23/1
f 89/23/1 88/13/1 6/24/1
f 88/13/1 7/12/1 6/24/1
f 12/25/1 85/26/1 84/27/1
f 12/25/1 84/27/1 13/28/1
f 81/29/1 16/30/1 82/31/1
f 16/30/1 15/32/1 82/31/1
f 83/33/1 82/31/1 15/32/1
f 15/32/1 14/34/1 83/33/1
f 84/27/1 83/33/1 14/34/1
f 13/28/1 84/27/1 14/34/1
f 77/35/1 76/36/1 22/37/1
f 22/37/1 21/38/1 77/35/1
f 78/39/1 77/35/1 21/38/1
f 21/38/1 20/40/1 78/39/1
f 78/39/1 20/40/1 79/41/1
f 20/40/1 19/42/1 79/41/1
f 80/43/1 79/41/1 19/42/1
f 19/42/1 18/44/1 80/43/1
f 81/29/1 80/43/1 18/44/1
f 18/44/1 17/45/1 81/29/1
f 16/30/1 81/29/1 17/45/1
f 11/9/1 86/8/1 85/26/1
f 85/26/1 12/25/1 11/9/1
f 71/46/1 70/47/1 28/48/1
f 28/48/1 27/49/1 71/46/1
f 61/50/1 35/51/1 62/52/1
f 63/53/1 62/52/1 35/51/1
f 35/51/1 34/54/1 63/53/1
f 63/53/1 34/54/1 64/55/1
f 34/54/1 33/56/1 64/55/1
f 65/57/1 64/55/1 33/56/1
f 65/57/1 33/56/1 66/58/1
f 33/56/1 32/59/1 66/58/1
f 67/60/1 66/58/1 32/59/1
f 32/59/1 31/61/1 67/60/1
f 68/62/1 67/60/1 31/61/1
f 31/61/1 30/63/1 68/62/1
f 69/64/1 68/62/1 30/63/1
f 30/63/1 29/65/1 69/64/1
f 70/47/1 69/64/1 29/65/1
f 28/48/1 70/47/1 29/65/1
f 37/66/1 36/67/1 60/68/1
f 37/66/1 60/68/1 59/69/1
f 37/66/1 59/69/1 58/70/1
f 38/71/1 37/66/1 58/70/1
f 58/70/1 57/72/1 38/71/1
f 39/73/1 38/71/1 57/72/1
f 49/74/1 48/75/1 47/76/1
f 45/77/1 44/78/1 50/79/1
f 50/79/1 49/74/1 45/77/1
f 46/80/1 45/77/1 49/74/1
f 49/74/1 47/76/1 46/80/1
f 39/73/1 57/72/1 56/81/1
f 56/81/1 55/82/1 39/73/1
f 40/83/1 39/73/1 55/82/1
f 55/82/1 54/84/1 40/83/1
f 41/85/1 40/83/1 54/84/1
f 54/84/1 53/86/1 41/85/1
f 42/87/1 41/85/1 53/86/1
f 53/86/1 52/88/1 42/87/1
f 52/88/1 51/89/1 42/87/1
f 43/90/1 42/87/1 51/89/1
f 51/89/1 50/79/1 43/90/1
f 50/79/1 44/78/1 43/90/1
f 60/68/1 36/67/1 61/50/1
f 35/51/1 61/50/1 36/67/1
f 71/46/1 27/49/1 72/91/1
f 27/49/1 26/92/1 72/91/1
f 73/93/1 72/91/1 26/92/1
f 26/92/1 25/94/1 73/93/1
f 74/95/1 73/93/1 25/94/1
f 25/94/1 24/96/1 74/95/1
f 75/97/1 74/95/1 24/96/1
f 24/96/1 23/98/1 75/97/1
f 76/36/1 75/97/1 23/98/1
f 22/37/1 76/36/1 23/98/1
f 101/99/1 100/100/1 102/101/1
f 103/102/1 102/101/1 100/100/1
f 100/100/1 104/103/1 103/102/1
f 99/6/1 108/1/1 105/104/1
f 108/1/1 107/105/1 105/104/1
f 106/106/1 105/104/1 107/105/1
f 99/6/1 105/104/1 100/100/1
f 104/103/1 100/100/1 105/104/1
f 172/107/1 171/108/1 173/104/1
f 171/108/1 202/109/1 173/104/1
f 174/110/1 173/104/1 202/109/1
f 168/111/1 176/112/1 169/113/1
f 170/114/1 169/113/1 176/112/1
f 202/109/1 171/108/1 170/114/1
f 170/114/1 176/112/1 202/109/1
f 174/110/1 202/109/1 201/115/1
f 167/116/1 166/117/1 177/118/1
f 166/117/1 165/119/1 178/120/1
f 177/118/1 166/117/1 178/120/1
f 198/121/1 109/6/1 199/122/1
f 175/123/1 199/122/1 109/6/1
f 167/116/1 177/118/1 168/111/1
f 176/112/1 168/111/1 177/118/1
f 199/122/1 175/123/1 200/124/1
f 201/115/1 200/124/1 175/123/1
f 174/110/1 201/115/1 175/123/1
f 196/125/1 111/126/1 197/127/1
f 111/126/1 110/128/1 197/127/1
f 198/121/1 197/127/1 110/128/1
f 109/6/1 198/121/1 110/128/1
f 133/129/1 131/130/1 134/131/1
f 131/130/1 135/132/1 205/1/1
f 134/131/1 131/130/1 130/133/1
f 129/134/1 133/129/1 203/135/1
f 137/136/1 136/137/1 131/130/1
f 135/132/1 131/130/1 136/137/1
f 133/129/1 129/134/1 128/138/1
f 128/138/1 127/139/1 133/129/1
f 127/139/1 126/140/1 133/129/1
f 156/141/1 155/142/1 157/143/1
f 155/142/1 154/144/1 157/143/1
f 154/144/1 153/145/1 157/143/1
f 153/145/1 152/146/1 157/143/1
f 152/146/1 151/147/1 157/143/1
f 151/147/1 150/148/1 157/143/1
f 150/148/1 149/149/1 157/143/1
f 149/149/1 148/150/1 157/143/1
f 148/150/1 147/151/1 157/143/1
f 147/151/1 146/152/1 157/143/1
f 158/153/1 157/143/1 146/152/1
f 146/152/1 145/154/1 158/153/1
f 145/154/1 144/155/1 158/153/1
f 144/155/1 143/156/1 158/153/1
f 143/156/1 142/157/1 158/153/1
f 142/157/1 141/101/1 158/153/1
f 141/101/1 140/158/1 158/153/1
f 158/153/1 140/158/1 159/159/1
f 140/158/1 139/160/1 159/159/1
f 139/160/1 138/161/1 159/159/1
f 160/162/1 159/159/1 138/161/1
f 138/161/1 137/136/1 160/162/1
f 137/136/1 131/130/1 160/162/1
f 161/163/1 160/162/1 131/130/1
f 162/164/1 161/163/1 131/130/1
f 163/165/1 162/164/1 131/130/1
f 164/166/1 163/165/1 131/130/1
f 165/119/1 164/166/1 131/130/1
f 131/130/1 133/129/1 165/119/1
f 178/120/1 165/119/1 133/129/1
f 179/167/1 178/120/1 133/129/1
f 180/168/1 179/167/1 133/129/1
f 181/169/1 180/168/1 133/129/1
f 182/170/1 181/169/1 133/129/1
f 183/171/1 182/170/1 133/129/1
f 184/172/1 183/171/1 133/129/1
f 133/129/1 126/140/1 184/172/1
f 126/140/1 125/173/1 184/172/1
f 185/174/1 184/172/1 125/173/1
f 125/173/1 124/175/1 185/174/1
f 124/175/1 123/176/1 185/174/1
f 186/177/1 185/174/1 123/176/1
f 123/176/1 122/178/1 186/177/1
f 187/179/1 186/177/1 122/178/1
f 122/178/1 121/180/1 187/179/1
f 121/180/1 120/181/1 187/179/1
f 188/182/1 187/179/1 120/181/1
f 120/181/1 119/183/1 188/182/1
f 189/184/1 188/182/1 119/183/1
f 119/183/1 118/185/1 189/184/1
f 190/186/1 189/184/1 118/185/1
f 118/185/1 117/187/1 190/186/1
f 191/188/1 190/186/1 117/187/1
f 117/187/1 116/189/1 191/188/1
f 192/190/1 191/188/1 116/189/1
f 116/189/1 115/191/1 192/190/1
f 193/192/1 192/190/1 115/191/1
f 115/191/1 114/193/1 193/192/1
f 194/194/1 193/192/1 114/193/1
f 114/193/1 113/195/1 194/194/1
f 195/196/1 194/194/1 113/195/1
f 113/195/1 112/197/1 195/196/1
f 196/125/1 195/196/1 112/197/1
f 111/126/1 196/125/1 112/197/1
f 134/131/1 130/133/1 204/198/1
f 132/199/1 203/135/1 205/1/1
f 203/135/1 204/198/1 205/1/1
f 239/200/1 238/201/1 226/202/1
f 227/203/1 226/202/1 238/201/1
f 238/201/1 237/204/1 227/203/1
f 237/204/1 236/205/1 227/203/1
f 228/206/1 227/203/1 236/205/1
f 236/205/1 235/207/1 228/206/1
f 235/207/1 234/208/1 228/206/1
f 229/209/1 228/206/1 234/208/1
f 234/208/1 233/210/1 229/209/1
f 233/210/1 232/211/1 229/209/1
f 230/212/1 229/209/1 232/211/1
f 232/211/1 231/213/1 230/212/1
f 252/214/1 251/215/1 219/216/1
f 217/217/1 255/218/1 218/219/1
f 255/218/1 254/220/1 218/219/1
f 253/221/1 218/219/1 254/220/1
f 218/219/1 253/221/1 219/216/1
f 252/214/1 219/216/1 253/221/1
f 219/216/1 251/215/1 220/222/1
f 251/215/1 250/223/1 220/222/1
f 250/223/1 249/224/1 220/222/1
f 220/222/1 249/224/1 221/225/1
f 249/224/1 248/226/1 221/225/1
f 222/227/1 221/225/1 248/226/1
f 248/226/1 247/228/1 222/227/1
f 247/228/1 246/229/1 222/227/1
f 223/230/1 222/227/1 246/229/1
f 246/229/1 245/231/1 223/230/1
f 245/231/1 244/232/1 223/230/1
f 224/233/1 223/230/1 244/232/1
f 244/232/1 243/234/1 224/233/1
f 243/234/1 242/235/1 224/233/1
f 225/236/1 224/233/1 242/235/1
f 242/235/1 241/237/1 225/236/1
f 241/237/1 240/238/1 225/236/1
f 226/202/1 225/236/1 240/238/1
f 239/200/1 226/202/1 240/238/1
f 215/239/1 261/240/1 260/241/1
f 258/242/1 257/243/1 216/244/1
f 259/245/1 258/242/1 216/244/1
f 216/244/1 215/239/1 259/245/1
f 215/239/1 260/241/1 259/245/1
f 261/240/1 215/239/1 214/246/1
f 262/247/1 261/240/1 214/246/1
f 214/246/1 263/248/1 262/247/1
f 209/249/1 208/250/1 272/251/1
f 273/252/1 272/251/1 208/250/1
f 274/253/1 273/252/1 208/250/1
f 208/250/1 207/254/1 274/253/1
f 275/255/1 274/253/1 207/254/1
f 276/256/1 275/255/1 207/254/1
f 207/254/1 206/6/1 276/256/1
f 277/257/1 276/256/1 206/6/1
f 278/258/1 277/257/1 206/6/1
f 206/6/1 283/1/1 278/258/1
f 279/259/1 278/258/1 283/1/1
f 280/260/1 279/259/1 283/1/1
f 283/1/1 282/261/1 280/260/1
f 281/262/1 280/260/1 282/261/1
f 263/248/1 214/246/1 213/263/1
f 264/264/1 263/248/1 213/263/1
f 265/265/1 264/264/1 213/263/1
f 213/263/1 212/266/1 265/265/1
f 266/267/1 265/265/1 212/266/1
f 267/268/1 266/267/1 212/266/1
f 212/266/1 211/269/1 267/268/1
f 268/270/1 267/268/1 211/269/1
f 269/271/1 268/270/1 211/269/1
f 211/269/1 210/272/1 269/271/1
f 270/273/1 269/271/1 210/272/1
f 210/272/1 209/249/1 270/273/1
f 271/274/1 270/273/1 209/249/1
f 209/249/1 272/251/1 271/274/1
f 216/244/1 257/243/1 217/217/1
f 257/243/1 256/275/1 217/217/1
f 255/218/1 217/217/1 256/275/1
f 289/240/1 288/223/1 287/200/1
f 291/1/1 290/251/1 284/6/1
f 287/200/1 286/206/1 285/217/1
f 285/217/1 284/6/1 287/200/1
f 284/6/1 290/251/1 287/200/1
f 289/240/1 287/200/1 290/251/1
f 355/107/1 354/108/1 356/104/1
f 354/108/1 385/109/1 356/104/1
f 357/110/1 356/104/1 385/109/1
f 351/111/1 359/112/1 352/113/1
f 353/114/1 352/113/1 359/112/1
f 385/109/1 354/108/1 353/114/1
f 353/114/1 359/112/1 385/109/1
f 357/110/1 385/109/1 384/115/1
f 350/116/1 349/117/1 360/118/1
f 349/117/1 348/119/1 361/120/1
f 360/118/1 349/117/1 361/120/1
f 381/121/1 292/6/1 382/122/1
f 358/123/1 382/122/1 292/6/1
f 350/116/1 360/118/1 351/111/1
f 359/112/1 351/111/1 360/118/1
f 382/122/1 358/123/1 383/124/1
f 384/115/1 383/124/1 358/123/1
f 357/110/1 384/115/1 358/123/1
f 379/125/1 294/126/1 380/127/1
f 294/126/1 293/128/1 380/127/1
f 381/121/1 380/127/1 293/128/1
f 292/6/1 381/121/1 293/128/1
f 316/129/1 314/130/1 317/131/1
f 314/130/1 318/132/1 388/1/1
f 317/131/1 314/130/1 313/133/1
f 312/134/1 316/129/1 386/135/1
f 320/136/1 319/137/1 314/130/1
f 318/132/1 314/130/1 319/137/1
f 316/129/1 312/134/1 311/138/1
f 311/138/1 310/139/1 316/129/1
f 310/139/1 309/140/1 316/129/1
f 339/141/1 338/142/1 340/143/1
f 338/142/1 337/144/1 340/143/1
f 337/144/1 336/145/1 340/143/1
f 336/145/1 335/146/1 340/143/1
f 335/146/1 334/147/1 340/143/1
f 334/147/1 333/148/1 340/143/1
f 333/148/1 332/149/1 340/143/1
f 332/149/1 331/150/1 340/143/1
f 331/150/1 330/151/1 340/143/1
f 330/151/1 329/152/1 340/143/1
f 341/153/1 340/143/1 329/152/1
f 329/152/1 328/154/1 341/153/1
f 328/154/1 327/155/1 341/153/1
f 327/155/1 326/156/1 341/153/1
f 326/156/1 325/157/1 341/153/1
f 325/157/1 324/101/1 341/153/1
f 324/101/1 323/158/1 341/153/1
f 341/153/1 323/158/1 342/159/1
f 323/158/1 322/160/1 342/159/1
f 322/160/1 321/161/1 342/159/1
f 343/162/1 342/159/1 321/161/1
f 321/161/1 320/136/1 343/162/1
f 320/136/1 314/130/1 343/162/1
f 344/163/1 343/162/1 314/130/1
f 345/164/1 344/163/1 314/130/1
f 346/165/1 345/164/1 314/130/1
f 347/166/1 346/165/1 314/130/1
f 348/119/1 347/166/1 314/130/1
f 314/130/1 316/129/1 348/119/1
f 361/120/1 348/119/1 316/129/1
f 362/167/1 361/120/1 316/129/1
f 363/168/1 362/167/1 316/129/1
f 364/169/1 363/168/1 316/129/1
f 365/170/1 364/169/1 316/129/1
f 366/171/1 365/170/1 316/129/1
f 367/172/1 366/171/1 316/129/1
f 316/129/1 309/140/1 367/172/1
f 309/140/1 308/173/1 367/172/1
f 368/174/1 367/172/1 308/173/1
f 308/173/1 307/175/1 368/174/1
f 307/175/1 306/176/1 368/174/1
f 369/177/1 368/174/1 306/176/1
f 306/176/1 305/178/1 369/177/1
f 370/179/1 369/177/1 305/178/1
f 305/178/1 304/180/1 370/179/1
f 304/180/1 303/181/1 370/179/1
f 371/182/1 370/179/1 303/181/1
f 303/181/1 302/183/1 371/182/1
f 372/184/1 371/182/1 302/183/1
f 302/183/1 301/185/1 372/184/1
f 373/186/1 372/184/1 301/185/1
f 301/185/1 300/187/1 373/186/1
f 374/188/1 373/186/1 300/187/1
f 300/187/1 299/189/1 374/188/1
f 375/190/1 374/188/1 299/189/1
f 299/189/1 298/191/1 375/190/1
f 376/192/1 375/190/1 298/191/1
f 298/191/1 297/193/1 376/192/1
f 377/194/1 376/192/1 297/193/1
f 297/193/1 296/195/1 377/194/1
f 378/196/1 377/194/1 296/195/1
f 296/195/1 295/197/1 378/196/1
f 379/125/1 378/196/1 295/197/1
f 294/126/1 379/125/1 295/197/1
f 317/131/1 313/133/1 387/198/1
f 315/199/1 386/135/1 388/1/1
f 386/135/1 387/198/1 388/1/1
f 397/247/1 394/237/1 393/208/1
f 398/271/1 397/247/1 393/208/1
f 393/208/1 390/263/1 398/271/1
f 390/263/1 389/6/1 398/271/1
f 394/237/1 397/247/1 396/218/1
f 396/218/1 395/226/1 394/237/1
f 390/263/1 393/208/1 392/203/1
f 392/203/1 391/222/1 390/263/1
f 400/1/1 399/256/1 389/6/1
f 398/271/1 389/6/1 399/256/1
f 407/169/1 406/113/1 405/143/1
f 409/1/1 402/180/1 401/6/1
f 402/180/1 409/1/1 408/192/1
f 403/129/1 402/180/1 404/154/1
f 405/143/1 404/154/1 402/180/1
f 402/180/1 408/192/1 405/143/1
f 407/169/1 405/143/1 408/192/1
f 414/276/1 413/277/1 412/278/1
f 412/278/1 420/1/1 414/276/1
f 420/1/1 415/143/1 414/276/1
f 416/279/1 419/280/1 418/281/1
f 411/282/1 410/6/1 417/283/1
f 411/282/1 417/283/1 418/281/1
f 416/279/1 418/281/1 417/283/1
f 411/282/1 418/281/1 412/278/1
f 420/1/1 412/278/1 418/281/1
f 415/143/1 420/1/1 419/280/1
f 419/280/1 416/279/1 415/143/1
f 424/279/1 423/276/1 426/1/1
f 426/1/1 423/276/1 422/278/1
f 422/278/1 421/6/1 426/1/1
f 424/279/1 426/1/1 425/281/1
f 482/1/1 451/284/1 450/285/1
f 453/286/1 452/237/1 451/284/1
f 451/284/1 482/1/1 453/286/1
f 454/287/1 453/286/1 482/1/1
f 482/1/1 481/288/1 454/287/1
f 449/276/1 458/289/1 457/226/1
f 449/276/1 457/226/1 456/290/1
f 455/291/1 480/292/1 479/293/1
f 449/276/1 456/290/1 450/285/1
f 482/1/1 450/285/1 456/290/1
f 480/292/1 455/291/1 481/288/1
f 454/287/1 481/288/1 455/291/1
f 478/294/1 477/256/1 428/295/1
f 427/6/1 478/294/1 428/295/1
f 458/289/1 449/276/1 448/296/1
f 448/296/1 459/297/1 458/289/1
f 478/294/1 427/6/1 479/293/1
f 455/291/1 479/293/1 427/6/1
f 443/298/1 442/203/1 464/299/1
f 465/300/1 464/299/1 442/203/1
f 442/203/1 441/301/1 465/300/1
f 466/302/1 465/300/1 441/301/1
f 441/301/1 440/303/1 466/302/1
f 440/303/1 439/304/1 466/302/1
f 467/247/1 466/302/1 439/304/1
f 439/304/1 438/278/1 467/247/1
f 468/305/1 467/247/1 438/278/1
f 438/278/1 437/222/1 468/305/1
f 469/306/1 468/305/1 437/222/1
f 470/307/1 469/306/1 437/222/1
f 437/222/1 436/308/1 470/307/1
f 471/281/1 470/307/1 436/308/1
f 436/308/1 435/309/1 471/281/1
f 472/271/1 471/281/1 435/309/1
f 435/309/1 434/310/1 472/271/1
f 459/297/1 448/296/1 447/208/1
f 460/279/1 459/297/1 447/208/1
f 447/208/1 446/311/1 460/279/1
f 461/312/1 460/279/1 446/311/1
f 446/311/1 445/313/1 461/312/1
f 462/218/1 461/312/1 445/313/1
f 445/313/1 444/314/1 462/218/1
f 463/315/1 462/218/1 444/314/1
f 444/314/1 443/298/1 463/315/1
f 443/298/1 464/299/1 463/315/1
f 472/271/1 434/310/1 473/316/1
f 434/310/1 433/317/1 473/316/1
f 433/317/1 432/263/1 473/316/1
f 474/318/1 473/316/1 432/263/1
f 432/263/1 431/319/1 474/318/1
f 475/320/1 474/318/1 431/319/1
f 431/319/1 430/321/1 475/320/1
f 476/322/1 475/320/1 430/321/1
f 430/321/1 429/323/1 476/322/1
f 477/256/1 476/322/1 429/323/1
f 428/295/1 477/256/1 429/323/1
f 580/1/1 579/2/1 578/3/1
f 580/1/1 578/3/1 577/4/1
f 577/4/1 576/5/1 580/1/1
f 483/6/1 580/1/1 576/5/1
f 576/5/1 575/7/1 483/6/1
f 568/8/1 493/9/1 492/10/1
f 490/11/1 489/12/1 570/13/1
f 570/13/1 569/14/1 490/11/1
f 491/15/1 490/11/1 569/14/1
f 569/14/1 568/8/1 491/15/1
f 568/8/1 492/10/1 491/15/1
f 483/6/1 575/7/1 574/16/1
f 484/17/1 483/6/1 574/16/1
f 574/16/1 573/18/1 484/17/1
f 485/19/1 484/17/1 573/18/1
f 486/20/1 485/19/1 573/18/1
f 573/18/1 572/21/1 486/20/1
f 487/22/1 486/20/1 572/21/1
f 572/21/1 571/23/1 487/22/1
f 488/24/1 487/22/1 571/23/1
f 571/23/1 570/13/1 488/24/1
f 570/13/1 489/12/1 488/24/1
f 494/25/1 567/26/1 566/27/1
f 494/25/1 566/27/1 495/28/1
f 563/29/1 498/30/1 564/31/1
f 498/30/1 497/32/1 564/31/1
f 565/33/1 564/31/1 497/32/1
f 497/32/1 496/34/1 565/33/1
f 566/27/1 565/33/1 496/34/1
f 495/28/1 566/27/1 496/34/1
f 559/35/1 558/36/1 504/37/1
f 504/37/1 503/38/1 559/35/1
f 560/39/1 559/35/1 503/38/1
f 503/38/1 502/40/1 560/39/1
f 560/39/1 502/40/1 561/41/1
f 502/40/1 501/42/1 561/41/1
f 562/43/1 561/41/1 501/42/1
f 501/42/1 500/44/1 562/43/1
f 563/29/1 562/43/1 500/44/1
f 500/44/1 499/45/1 563/29/1
f 498/30/1 563/29/1 499/45/1
f 493/9/1 568/8/1 567/26/1
f 567/26/1 494/25/1 493/9/1
f 553/46/1 552/47/1 510/48/1
f 510/48/1 509/49/1 553/46/1
f 543/50/1 517/51/1 544/52/1
f 545/53/1 544/52/1 517/51/1
f 517/51/1 516/54/1 545/53/1
f 545/53/1 516/54/1 546/55/1
f 516/54/1 515/56/1 546/55/1
f 547/57/1 546/55/1 515/56/1
f 547/57/1 515/56/1 548/58/1
f 515/56/1 514/59/1 548/58/1
f 549/60/1 548/58/1 514/59/1
f 514/59/1 513/61/1 549/60/1
f 550/62/1 549/60/1 513/61/1
f 513/61/1 512/63/1 550/62/1
f 551/64/1 550/62/1 512/63/1
f 512/63/1 511/65/1 551/64/1
f 552/47/1 551/64/1 511/65/1
f 510/48/1 552/47/1 511/65/1
f 519/66/1 518/67/1 542/68/1
f 519/66/1 542/68/1 541/69/1
f 519/66/1 541/69/1 540/70/1
f 520/71/1 519/66/1 540/70/1
f 540/70/1 539/72/1 520/71/1
f 521/73/1 520/71/1 539/72/1
f 531/74/1 530/75/1 529/76/1
f 527/77/1 526/78/1 532/79/1
f 532/79/1 531/74/1 527/77/1
f 528/80/1 527/77/1 531/74/1
f 531/74/1 529/76/1 528/80/1
f 521/73/1 539/72/1 538/81/1
f 538/81/1 537/82/1 521/73/1
f 522/83/1 521/73/1 537/82/1
f 537/82/1 536/84/1 522/83/1
f 523/85/1 522/83/1 536/84/1
f 536/84/1 535/86/1 523/85/1
f 524/87/1 523/85/1 535/86/1
f 535/86/1 534/88/1 524/87/1
f 534/88/1 533/89/1 524/87/1
f 525/90/1 524/87/1 533/89/1
f 533/89/1 532/79/1 525/90/1
f 532/79/1 526/78/1 525/90/1
f 542/68/1 518/67/1 543/50/1
f 517/51/1 543/50/1 518/67/1
f 553/46/1 509/49/1 554/91/1
f 509/49/1 508/92/1 554/91/1
f 555/93/1 554/91/1 508/92/1
f 508/92/1 507/94/1 555/93/1
f 556/95/1 555/93/1 507/94/1
f 507/94/1 506/96/1 556/95/1
f 557/97/1 556/95/1 506/96/1
f 506/96/1 505/98/1 557/97/1
f 558/36/1 557/97/1 505/98/1
f 504/37/1 558/36/1 505/98/1
